<mxfile modified="2023-09-18T23:57:02.348Z" host="Electron" agent="Mozilla/5.0 (Macintosh; Intel Mac OS X 10_15_7) AppleWebKit/537.36 (KHTML, like Gecko) draw.io/21.7.5 Chrome/114.0.5735.289 Electron/25.8.1 Safari/537.36" etag="S3qOHXzMcw6tmIKyCnc4" version="21.7.5" type="device">
  <diagram id="Ht1M8jgEwFfnCIfOTk4-" name="Page-1">
    <mxGraphModel dx="1810" dy="1099" grid="1" gridSize="10" guides="1" tooltips="1" connect="1" arrows="1" fold="1" page="1" pageScale="1" pageWidth="1169" pageHeight="827" math="0" shadow="0">
      <root>
        <mxCell id="0" />
        <mxCell id="1" parent="0" />
        <mxCell id="3PFf_b0eM-9wb7-2uuyZ-42" style="edgeStyle=orthogonalEdgeStyle;rounded=0;orthogonalLoop=1;jettySize=auto;html=1;entryX=0;entryY=0.5;entryDx=0;entryDy=0;entryPerimeter=0;startArrow=classic;startFill=1;" edge="1" parent="1" source="UEzPUAAOIrF-is8g5C7q-109" target="3PFf_b0eM-9wb7-2uuyZ-2">
          <mxGeometry relative="1" as="geometry" />
        </mxCell>
        <mxCell id="UEzPUAAOIrF-is8g5C7q-109" value="API Endpoints" style="outlineConnect=0;gradientColor=none;fontColor=#FFFFFF;strokeColor=none;fillColor=#879196;dashed=0;verticalLabelPosition=bottom;verticalAlign=top;align=center;html=1;fontSize=12;fontStyle=0;aspect=fixed;shape=mxgraph.aws4.illustration_desktop;pointerEvents=1;labelBackgroundColor=none;" parent="1" vertex="1">
          <mxGeometry x="90" y="481" width="100" height="91" as="geometry" />
        </mxCell>
        <mxCell id="3PFf_b0eM-9wb7-2uuyZ-2" value="Application Load Balancer" style="outlineConnect=0;dashed=0;verticalLabelPosition=bottom;verticalAlign=top;align=center;html=1;shape=mxgraph.aws3.application_load_balancer;fillColor=#F58536;gradientColor=none;whiteSpace=wrap;" vertex="1" parent="1">
          <mxGeometry x="291" y="490" width="69" height="72" as="geometry" />
        </mxCell>
        <mxCell id="3PFf_b0eM-9wb7-2uuyZ-24" style="edgeStyle=orthogonalEdgeStyle;rounded=0;orthogonalLoop=1;jettySize=auto;html=1;entryX=1;entryY=0.5;entryDx=0;entryDy=0;entryPerimeter=0;" edge="1" parent="1" source="3PFf_b0eM-9wb7-2uuyZ-3" target="3PFf_b0eM-9wb7-2uuyZ-5">
          <mxGeometry relative="1" as="geometry" />
        </mxCell>
        <mxCell id="3PFf_b0eM-9wb7-2uuyZ-3" value="Amazon ECS" style="sketch=0;points=[[0,0,0],[0.25,0,0],[0.5,0,0],[0.75,0,0],[1,0,0],[0,1,0],[0.25,1,0],[0.5,1,0],[0.75,1,0],[1,1,0],[0,0.25,0],[0,0.5,0],[0,0.75,0],[1,0.25,0],[1,0.5,0],[1,0.75,0]];outlineConnect=0;fontColor=#FFFFFF;fillColor=#ED7100;strokeColor=#ffffff;dashed=0;verticalLabelPosition=bottom;verticalAlign=top;align=center;html=1;fontSize=12;fontStyle=0;aspect=fixed;shape=mxgraph.aws4.resourceIcon;resIcon=mxgraph.aws4.ecs;" vertex="1" parent="1">
          <mxGeometry x="870" y="487" width="78" height="78" as="geometry" />
        </mxCell>
        <mxCell id="3PFf_b0eM-9wb7-2uuyZ-29" style="edgeStyle=orthogonalEdgeStyle;rounded=0;orthogonalLoop=1;jettySize=auto;html=1;startArrow=classic;startFill=1;" edge="1" parent="1" source="3PFf_b0eM-9wb7-2uuyZ-4" target="3PFf_b0eM-9wb7-2uuyZ-2">
          <mxGeometry relative="1" as="geometry" />
        </mxCell>
        <mxCell id="3PFf_b0eM-9wb7-2uuyZ-40" style="edgeStyle=orthogonalEdgeStyle;rounded=0;orthogonalLoop=1;jettySize=auto;html=1;" edge="1" parent="1" source="3PFf_b0eM-9wb7-2uuyZ-4" target="3PFf_b0eM-9wb7-2uuyZ-15">
          <mxGeometry relative="1" as="geometry" />
        </mxCell>
        <mxCell id="3PFf_b0eM-9wb7-2uuyZ-4" value="Satchecker API service" style="sketch=0;outlineConnect=0;fontColor=#FFFFFF;gradientColor=none;fillColor=#ED7100;strokeColor=none;dashed=0;verticalLabelPosition=bottom;verticalAlign=top;align=left;html=1;fontSize=12;fontStyle=0;aspect=fixed;pointerEvents=1;shape=mxgraph.aws4.ecs_service;labelPosition=right;" vertex="1" parent="1">
          <mxGeometry x="457.19" y="501.5" width="39.81" height="49" as="geometry" />
        </mxCell>
        <mxCell id="3PFf_b0eM-9wb7-2uuyZ-25" style="edgeStyle=orthogonalEdgeStyle;rounded=0;orthogonalLoop=1;jettySize=auto;html=1;exitX=0;exitY=0.25;exitDx=0;exitDy=0;exitPerimeter=0;" edge="1" parent="1" source="3PFf_b0eM-9wb7-2uuyZ-5" target="3PFf_b0eM-9wb7-2uuyZ-8">
          <mxGeometry relative="1" as="geometry">
            <Array as="points">
              <mxPoint x="680" y="505" />
              <mxPoint x="613" y="505" />
              <mxPoint x="613" y="469" />
            </Array>
          </mxGeometry>
        </mxCell>
        <mxCell id="3PFf_b0eM-9wb7-2uuyZ-33" style="edgeStyle=orthogonalEdgeStyle;rounded=0;orthogonalLoop=1;jettySize=auto;html=1;" edge="1" parent="1" source="3PFf_b0eM-9wb7-2uuyZ-5" target="3PFf_b0eM-9wb7-2uuyZ-4">
          <mxGeometry relative="1" as="geometry" />
        </mxCell>
        <mxCell id="3PFf_b0eM-9wb7-2uuyZ-5" value="Amazon Fargate" style="sketch=0;points=[[0,0,0],[0.25,0,0],[0.5,0,0],[0.75,0,0],[1,0,0],[0,1,0],[0.25,1,0],[0.5,1,0],[0.75,1,0],[1,1,0],[0,0.25,0],[0,0.5,0],[0,0.75,0],[1,0.25,0],[1,0.5,0],[1,0.75,0]];outlineConnect=0;fontColor=#FFFFFF;fillColor=#ED7100;strokeColor=#ffffff;dashed=0;verticalLabelPosition=bottom;verticalAlign=top;align=center;html=1;fontSize=12;fontStyle=0;aspect=fixed;shape=mxgraph.aws4.resourceIcon;resIcon=mxgraph.aws4.fargate;" vertex="1" parent="1">
          <mxGeometry x="680" y="487" width="78" height="78" as="geometry" />
        </mxCell>
        <mxCell id="3PFf_b0eM-9wb7-2uuyZ-41" style="edgeStyle=orthogonalEdgeStyle;rounded=0;orthogonalLoop=1;jettySize=auto;html=1;entryX=1;entryY=0.5;entryDx=0;entryDy=0;entryPerimeter=0;" edge="1" parent="1" source="3PFf_b0eM-9wb7-2uuyZ-8" target="3PFf_b0eM-9wb7-2uuyZ-15">
          <mxGeometry relative="1" as="geometry" />
        </mxCell>
        <mxCell id="3PFf_b0eM-9wb7-2uuyZ-8" value="Database update scheduled task" style="sketch=0;outlineConnect=0;fontColor=#FFFFFF;gradientColor=none;fillColor=#ED7100;strokeColor=none;dashed=0;verticalLabelPosition=top;verticalAlign=bottom;align=center;html=1;fontSize=12;fontStyle=0;aspect=fixed;pointerEvents=1;shape=mxgraph.aws4.ecs_task;whiteSpace=wrap;labelPosition=center;" vertex="1" parent="1">
          <mxGeometry x="540" y="435" width="37" height="48" as="geometry" />
        </mxCell>
        <mxCell id="3PFf_b0eM-9wb7-2uuyZ-23" style="edgeStyle=orthogonalEdgeStyle;rounded=0;orthogonalLoop=1;jettySize=auto;html=1;exitX=0.5;exitY=1;exitDx=0;exitDy=0;exitPerimeter=0;startArrow=classic;startFill=1;" edge="1" parent="1" source="3PFf_b0eM-9wb7-2uuyZ-9" target="3PFf_b0eM-9wb7-2uuyZ-3">
          <mxGeometry relative="1" as="geometry" />
        </mxCell>
        <mxCell id="3PFf_b0eM-9wb7-2uuyZ-9" value="Elastic Container Registry" style="sketch=0;points=[[0,0,0],[0.25,0,0],[0.5,0,0],[0.75,0,0],[1,0,0],[0,1,0],[0.25,1,0],[0.5,1,0],[0.75,1,0],[1,1,0],[0,0.25,0],[0,0.5,0],[0,0.75,0],[1,0.25,0],[1,0.5,0],[1,0.75,0]];outlineConnect=0;fontColor=#FFFFFF;fillColor=#ED7100;strokeColor=#ffffff;dashed=0;verticalLabelPosition=bottom;verticalAlign=top;align=center;html=1;fontSize=12;fontStyle=0;aspect=fixed;shape=mxgraph.aws4.resourceIcon;resIcon=mxgraph.aws4.ecr;" vertex="1" parent="1">
          <mxGeometry x="870" y="126" width="78" height="78" as="geometry" />
        </mxCell>
        <mxCell id="3PFf_b0eM-9wb7-2uuyZ-16" style="edgeStyle=orthogonalEdgeStyle;rounded=0;orthogonalLoop=1;jettySize=auto;html=1;exitX=0.855;exitY=0.145;exitDx=0;exitDy=0;exitPerimeter=0;" edge="1" parent="1" source="3PFf_b0eM-9wb7-2uuyZ-10" target="3PFf_b0eM-9wb7-2uuyZ-13">
          <mxGeometry relative="1" as="geometry">
            <mxPoint x="450" y="154" as="sourcePoint" />
          </mxGeometry>
        </mxCell>
        <mxCell id="3PFf_b0eM-9wb7-2uuyZ-18" style="edgeStyle=orthogonalEdgeStyle;rounded=0;orthogonalLoop=1;jettySize=auto;html=1;exitX=0.5;exitY=0;exitDx=0;exitDy=0;exitPerimeter=0;" edge="1" parent="1" source="3PFf_b0eM-9wb7-2uuyZ-10" target="3PFf_b0eM-9wb7-2uuyZ-11">
          <mxGeometry relative="1" as="geometry">
            <Array as="points">
              <mxPoint x="385" y="64" />
            </Array>
          </mxGeometry>
        </mxCell>
        <mxCell id="3PFf_b0eM-9wb7-2uuyZ-10" value="GitHub" style="verticalLabelPosition=bottom;html=1;verticalAlign=top;align=center;strokeColor=none;fillColor=#00BEF2;shape=mxgraph.azure.github_code;pointerEvents=1;" vertex="1" parent="1">
          <mxGeometry x="360" y="140" width="50" height="50" as="geometry" />
        </mxCell>
        <mxCell id="3PFf_b0eM-9wb7-2uuyZ-20" style="edgeStyle=orthogonalEdgeStyle;rounded=0;orthogonalLoop=1;jettySize=auto;html=1;" edge="1" parent="1" source="3PFf_b0eM-9wb7-2uuyZ-11" target="3PFf_b0eM-9wb7-2uuyZ-9">
          <mxGeometry relative="1" as="geometry" />
        </mxCell>
        <mxCell id="3PFf_b0eM-9wb7-2uuyZ-11" value="Update database" style="sketch=0;outlineConnect=0;fontColor=#FFFFFF;gradientColor=none;fillColor=#ED7100;strokeColor=none;dashed=0;verticalLabelPosition=bottom;verticalAlign=top;align=center;html=1;fontSize=12;fontStyle=0;aspect=fixed;pointerEvents=1;shape=mxgraph.aws4.container_registry_image;" vertex="1" parent="1">
          <mxGeometry x="585" y="40" width="48" height="48" as="geometry" />
        </mxCell>
        <mxCell id="3PFf_b0eM-9wb7-2uuyZ-17" style="edgeStyle=orthogonalEdgeStyle;rounded=0;orthogonalLoop=1;jettySize=auto;html=1;entryX=1;entryY=0.5;entryDx=0;entryDy=0;entryPerimeter=0;startArrow=classic;startFill=1;endArrow=none;endFill=0;" edge="1" parent="1" source="3PFf_b0eM-9wb7-2uuyZ-12" target="3PFf_b0eM-9wb7-2uuyZ-10">
          <mxGeometry relative="1" as="geometry" />
        </mxCell>
        <mxCell id="3PFf_b0eM-9wb7-2uuyZ-22" style="edgeStyle=orthogonalEdgeStyle;rounded=0;orthogonalLoop=1;jettySize=auto;html=1;entryX=0;entryY=0.75;entryDx=0;entryDy=0;entryPerimeter=0;" edge="1" parent="1" source="3PFf_b0eM-9wb7-2uuyZ-12" target="3PFf_b0eM-9wb7-2uuyZ-9">
          <mxGeometry relative="1" as="geometry" />
        </mxCell>
        <mxCell id="3PFf_b0eM-9wb7-2uuyZ-12" value="Nginx" style="sketch=0;outlineConnect=0;fontColor=#FFFFFF;gradientColor=none;fillColor=#ED7100;strokeColor=none;dashed=0;verticalLabelPosition=bottom;verticalAlign=top;align=center;html=1;fontSize=12;fontStyle=0;aspect=fixed;pointerEvents=1;shape=mxgraph.aws4.container_registry_image;" vertex="1" parent="1">
          <mxGeometry x="585" y="222" width="48" height="48" as="geometry" />
        </mxCell>
        <mxCell id="3PFf_b0eM-9wb7-2uuyZ-21" style="edgeStyle=orthogonalEdgeStyle;rounded=0;orthogonalLoop=1;jettySize=auto;html=1;entryX=0;entryY=0.25;entryDx=0;entryDy=0;entryPerimeter=0;" edge="1" parent="1" source="3PFf_b0eM-9wb7-2uuyZ-13" target="3PFf_b0eM-9wb7-2uuyZ-9">
          <mxGeometry relative="1" as="geometry" />
        </mxCell>
        <mxCell id="3PFf_b0eM-9wb7-2uuyZ-13" value="SatChecker API" style="sketch=0;outlineConnect=0;fontColor=#FFFFFF;gradientColor=none;fillColor=#ED7100;strokeColor=none;dashed=0;verticalLabelPosition=bottom;verticalAlign=top;align=center;html=1;fontSize=12;fontStyle=0;aspect=fixed;pointerEvents=1;shape=mxgraph.aws4.container_registry_image;" vertex="1" parent="1">
          <mxGeometry x="585" y="122" width="48" height="48" as="geometry" />
        </mxCell>
        <mxCell id="3PFf_b0eM-9wb7-2uuyZ-15" value="Amazon RDS - PostgreSQL" style="sketch=0;points=[[0,0,0],[0.25,0,0],[0.5,0,0],[0.75,0,0],[1,0,0],[0,1,0],[0.25,1,0],[0.5,1,0],[0.75,1,0],[1,1,0],[0,0.25,0],[0,0.5,0],[0,0.75,0],[1,0.25,0],[1,0.5,0],[1,0.75,0]];outlineConnect=0;fontColor=#FFFFFF;fillColor=#C925D1;strokeColor=#ffffff;dashed=0;verticalLabelPosition=top;verticalAlign=bottom;align=center;html=1;fontSize=12;fontStyle=0;aspect=fixed;shape=mxgraph.aws4.resourceIcon;resIcon=mxgraph.aws4.rds;labelPosition=center;" vertex="1" parent="1">
          <mxGeometry x="400" y="325" width="78" height="78" as="geometry" />
        </mxCell>
      </root>
    </mxGraphModel>
  </diagram>
</mxfile>
